<svg xmlns="http://www.w3.org/2000/svg" xmlns:xlink="http://www.w3.org/1999/xlink" viewBox="0 0 214.75 241.19"><defs><style>.cls-1{fill:none;}.cls-2{clip-path:url(#clip-path);}.cls-3{fill:#121516;}.cls-4{fill:#fcc300;}</style><clipPath id="clip-path" transform="translate(-20.62 -7.41)"><rect class="cls-1" width="256" height="256"/></clipPath></defs><g id="Layer_2" data-name="Layer 2"><g id="Layer_1-2" data-name="Layer 1"><g class="cls-2"><polygon class="cls-3" points="16.68 34.15 16.68 198.61 194.93 224.43 194.93 18.84 16.68 34.15"/><path class="cls-4" d="M204.5,201.62c-3.64,2.83-7,3.93-11.81,4.38,0,0-6.18.48-10.6-3.29-4.37-4.26-6.49-6.71-11.73-13.93-8.31-11.45-23.17-27.68-32.64-40.07.2,11.52-.4,27.11-.26,37.76.07,5.52-1.92,8.1-2.78,9.32-1.72,2-5.81,2-7.61,2.23-1.18.11-14.22,1.65-17.81-2.86-4-3.65-3.21-8-3.21-13.31-1.49-34.81-.49-79.18-.7-114.54,0-6.08.72-7.52,2.68-9.75,1.71-2,5.26-2.33,7-2.33,11.61,0,14.42.68,17.88,4.72,3.73,4.35,3.79,7.1,4,15,.25,10,.18,27.32-.27,38.63,13.51-17.91,28.32-39,39.57-57.4,3.6-5.88,7.55-6,8.69-5.95,5.84,0,10.79,1.32,14.06,4.37s4.67,5.5,5,10.11a17.6,17.6,0,0,1-1.28,9.19c-2.08,4.79-3.9,7.65-8.58,14.71-7.31,11-18.4,29.17-27,41.35,5,7.16,13.47,19.08,17.64,25s3.2,4.38,6.86,9.41,9.75,13.27,13.61,18.26a24.61,24.61,0,0,1,3.21,5.07,9.17,9.17,0,0,1,.84,4.28c0,3.36-2.67,8.15-4.67,9.7M85.15,192.1c-1.73,2.19-5,2.14-7.14,2.17-1.73,0-12.71.34-17.22-2.68-3-2.63-3.11-5-3.24-11.77-.41-20.95,0-48.27-.44-69.44-.13-5.31.23-6.42,2.29-9.26s6.71-2.75,6.71-2.75,13.86-.29,17.27,3.68,3.21,5.89,3.37,12.7c.5,21,.16,47.91.51,68.87.09,5.26,0,6-2.11,8.48m-26-132.35a15.79,15.79,0,0,1,11.68-4.33A15.89,15.89,0,0,1,82.48,60,15.6,15.6,0,0,1,87,71.64,18.5,18.5,0,0,1,82.63,84a14.2,14.2,0,0,1-11.5,5.31,15.18,15.18,0,0,1-11.84-5.74,18.33,18.33,0,0,1-4.63-12.19,15.1,15.1,0,0,1,4.51-11.6M205.54,7.41,50.46,25.33A29.93,29.93,0,0,0,20.62,55.16V200.83a29.92,29.92,0,0,0,29.84,29.84l155.08,17.92a29.92,29.92,0,0,0,29.84-29.84V37.25A29.93,29.93,0,0,0,205.54,7.41" transform="translate(-20.62 -7.41)"/></g></g></g></svg>